<?xml version="1.0" standalone="no"?>
<!DOCTYPE svg PUBLIC "-//W3C//DTD SVG 20010904//EN"
 "http://www.w3.org/TR/2001/REC-SVG-20010904/DTD/svg10.dtd">
<svg version="1.0" xmlns="http://www.w3.org/2000/svg"
 width="1717.000000pt" height="1717.000000pt" viewBox="0 0 1717.000000 1717.000000"
 preserveAspectRatio="xMidYMid meet">
<metadata>
Created by potrace 1.11, written by Peter Selinger 2001-2013
</metadata>
<g transform="translate(0.000000,1717.000000) scale(0.100000,-0.100000)"
fill="#000000" stroke="none">
<path d="M8570 17147 c0 -19 -36 -50 -63 -54 -12 -2 -38 -15 -57 -28 -20 -14
-44 -25 -54 -25 -9 0 -41 -22 -69 -49 -50 -47 -240 -148 -310 -165 -16 -4 -46
-24 -68 -46 -41 -40 -158 -109 -219 -129 -20 -6 -50 -27 -68 -45 -18 -19 -56
-47 -85 -61 -28 -15 -81 -42 -117 -60 -35 -19 -78 -37 -95 -41 -17 -3 -55 -30
-87 -60 -31 -30 -61 -54 -67 -54 -15 0 -179 -79 -186 -89 -2 -5 -21 -12 -40
-15 -23 -5 -51 -23 -83 -55 -28 -28 -76 -61 -117 -80 -114 -54 -128 -62 -165
-97 -19 -18 -51 -39 -70 -45 -19 -7 -51 -22 -70 -35 -19 -12 -52 -27 -72 -34
-21 -6 -38 -15 -38 -20 0 -4 -18 -11 -41 -15 -23 -4 -48 -16 -57 -26 -10 -11
-33 -24 -52 -29 -19 -5 -58 -32 -88 -60 -29 -27 -59 -50 -67 -50 -27 0 -30 -1
-63 -27 -18 -14 -49 -29 -67 -34 -19 -6 -55 -29 -79 -53 -24 -24 -55 -47 -68
-51 -12 -4 -36 -17 -51 -28 -16 -11 -47 -24 -70 -29 -23 -5 -51 -18 -62 -28
-11 -10 -33 -21 -49 -24 -16 -3 -38 -14 -50 -25 -12 -10 -37 -26 -56 -34 -19
-8 -57 -35 -85 -60 -27 -26 -63 -48 -81 -51 -17 -4 -39 -15 -49 -26 -10 -11
-29 -20 -42 -20 -32 0 -50 -10 -98 -56 -22 -20 -59 -46 -82 -56 -23 -10 -45
-23 -48 -28 -3 -5 -29 -16 -57 -25 -27 -8 -59 -24 -69 -36 -11 -12 -19 -19
-19 -16 0 16 -68 -21 -102 -55 -20 -21 -62 -50 -93 -64 -30 -15 -58 -30 -61
-35 -3 -5 -19 -9 -35 -9 -22 0 -44 -13 -82 -49 -29 -27 -74 -60 -102 -73 -27
-14 -81 -41 -119 -62 -59 -31 -86 -42 -118 -45 -4 -1 -30 -23 -58 -51 -28 -27
-63 -53 -78 -57 -14 -3 -51 -21 -82 -40 -30 -18 -60 -33 -66 -33 -5 0 -23 -14
-40 -31 -16 -17 -54 -43 -84 -58 -30 -15 -86 -44 -124 -64 -38 -20 -78 -37
-89 -37 -10 0 -35 -13 -54 -30 -19 -17 -45 -30 -60 -30 -18 0 -43 -16 -79 -50
-30 -28 -71 -58 -91 -66 -68 -27 -137 -66 -204 -115 -37 -27 -70 -49 -73 -49
-4 0 -28 -12 -54 -27 -49 -29 -149 -73 -167 -73 -5 0 -32 -21 -60 -46 -27 -26
-70 -56 -95 -69 -25 -12 -80 -40 -122 -63 -42 -23 -85 -42 -95 -42 -10 0 -39
-18 -63 -41 -25 -22 -81 -59 -125 -81 -44 -22 -93 -50 -110 -62 -16 -11 -30
-19 -30 -18 0 2 -13 -1 -28 -7 -16 -6 -33 -11 -39 -11 -6 0 -37 -25 -70 -55
-32 -30 -65 -55 -71 -55 -7 0 -34 -11 -62 -25 -27 -13 -57 -25 -66 -25 -8 0
-40 -22 -70 -50 -29 -27 -65 -54 -79 -60 -42 -19 -93 -45 -140 -72 -25 -14
-63 -31 -85 -37 -29 -7 -52 -24 -80 -58 l-40 -48 -2 -755 c-1 -415 -2 -2285
-3 -4155 0 -2382 -4 -3413 -11 -3442 -14 -52 9 -154 43 -190 22 -23 192 -123
210 -123 5 0 28 -15 51 -33 36 -29 65 -48 177 -117 8 -5 47 -23 85 -40 39 -17
79 -36 90 -42 109 -62 139 -80 167 -102 18 -13 53 -34 78 -46 25 -11 56 -27
70 -35 14 -8 33 -15 43 -15 9 0 41 -24 70 -54 29 -30 65 -57 82 -60 66 -16
133 -54 274 -153 41 -29 78 -53 83 -53 29 0 198 -94 233 -130 30 -31 56 -45
106 -60 36 -11 81 -31 100 -44 19 -13 57 -36 85 -50 27 -14 68 -43 89 -65 23
-23 53 -42 72 -46 34 -6 136 -60 180 -95 14 -11 31 -20 38 -20 6 0 34 -16 61
-36 27 -19 72 -46 101 -59 29 -13 74 -44 101 -69 39 -37 56 -46 84 -46 21 0
50 -10 72 -25 20 -13 48 -33 63 -43 52 -35 131 -80 155 -87 12 -5 37 -18 53
-31 17 -12 53 -31 81 -42 29 -10 69 -33 90 -50 22 -17 82 -53 134 -80 122 -64
200 -109 225 -132 11 -10 70 -44 132 -75 62 -31 136 -76 166 -101 30 -24 59
-44 66 -44 29 0 161 -74 206 -115 27 -25 58 -45 70 -45 12 0 39 -11 59 -25 20
-14 41 -25 47 -25 5 0 33 -16 62 -35 28 -19 55 -35 60 -35 12 0 79 -51 95 -72
6 -9 36 -24 65 -34 28 -9 57 -20 62 -24 6 -5 51 -30 101 -57 51 -26 113 -67
139 -91 25 -23 53 -42 61 -42 9 0 43 -14 77 -32 34 -17 80 -41 102 -51 22 -11
73 -42 113 -68 40 -27 75 -49 78 -49 11 0 182 -88 253 -130 39 -24 83 -56 97
-73 17 -21 50 -39 105 -58 44 -15 101 -42 126 -59 26 -16 51 -30 57 -30 6 0
32 -17 58 -39 26 -21 91 -60 145 -86 60 -29 118 -67 150 -97 28 -26 61 -48 73
-48 12 0 41 -11 66 -25 110 -62 131 -73 154 -78 14 -3 50 -29 80 -57 30 -27
66 -53 80 -56 47 -10 171 -79 203 -112 18 -19 51 -42 75 -53 24 -10 50 -26 58
-34 9 -8 23 -16 32 -17 9 0 22 -2 28 -2 31 -3 134 -73 145 -99 10 -24 47 -55
53 -45 36 57 56 80 76 85 14 3 43 18 65 33 22 14 55 32 73 40 18 7 41 25 52
40 10 14 38 34 62 44 24 10 57 25 73 33 131 67 208 111 254 144 30 22 57 39
61 39 9 0 180 98 200 114 21 17 85 54 215 121 112 58 146 80 187 116 13 12 97
59 188 106 90 47 203 110 249 141 47 31 131 79 187 108 56 28 117 63 136 76
37 28 84 55 213 123 50 26 113 62 140 80 28 18 93 56 145 85 52 29 117 69 144
88 27 19 81 51 120 72 165 86 261 141 280 159 12 11 93 56 181 102 88 45 176
97 196 115 20 17 79 53 130 79 52 26 117 64 144 85 28 21 61 41 75 45 14 4 37
16 52 27 15 10 69 40 120 66 51 26 118 66 148 88 30 22 71 48 90 58 19 9 42
20 50 25 8 4 24 13 36 18 11 6 45 23 75 39 30 15 76 43 104 62 27 20 111 67
185 105 122 63 184 101 217 133 6 6 81 45 166 87 85 42 174 94 198 115 24 22
109 72 189 112 80 39 168 88 195 109 28 20 71 47 98 61 26 14 57 34 70 45 32
30 74 55 90 55 8 0 25 9 39 19 13 11 68 42 123 70 54 28 117 66 139 85 23 18
108 68 190 110 82 42 170 92 195 110 25 18 102 61 171 95 69 35 148 80 176
101 29 21 85 56 125 78 236 125 270 146 292 181 21 34 22 45 20 246 0 116 -3
2020 -5 4231 l-4 4021 -24 36 c-14 20 -41 44 -60 54 -19 10 -49 28 -66 41 -17
12 -34 22 -38 22 -22 0 -196 96 -226 124 -19 19 -96 64 -170 101 -136 68 -174
90 -220 130 -14 12 -45 30 -70 40 -25 11 -47 23 -50 27 -3 4 -30 18 -60 31
-30 14 -70 38 -88 54 -18 16 -104 65 -190 108 -92 47 -172 95 -196 118 -44 42
-86 67 -110 67 -26 0 -229 109 -261 140 -16 16 -82 54 -145 85 -127 62 -199
104 -233 135 -12 11 -67 43 -124 71 -56 27 -128 70 -160 95 -32 25 -132 82
-223 126 -156 77 -233 121 -290 167 -14 11 -30 21 -37 21 -6 0 -13 3 -15 8 -2
4 -34 23 -73 42 -38 19 -90 50 -115 69 -25 18 -112 67 -195 108 -82 41 -163
86 -180 101 -45 41 -83 65 -150 96 -108 50 -120 56 -151 85 -17 16 -73 51
-125 78 -52 27 -105 56 -119 65 -14 9 -36 18 -50 22 -14 3 -42 21 -63 40 -21
19 -109 71 -196 116 -88 44 -170 91 -182 103 -13 13 -76 49 -139 82 -63 32
-157 84 -207 116 -51 32 -138 82 -194 111 -56 29 -120 72 -144 96 -24 23 -49
42 -55 42 -25 0 -288 136 -340 176 -47 36 -285 164 -305 164 -3 0 -27 18 -53
39 -26 22 -114 74 -197 116 -82 42 -168 91 -190 109 -22 18 -56 41 -75 50 -19
10 -62 32 -95 48 -33 17 -78 45 -100 63 -39 32 -79 54 -225 125 -36 17 -94 53
-130 78 -36 26 -109 70 -164 97 -54 28 -105 60 -114 73 -16 24 -42 30 -42 9z"/>
</g>
</svg>
